SplineFontDB: 3.0
FontName: BulmerStM
FullName: Sorts Mill Bulmer
FamilyName: Sorts Mill Bulmer
Weight: Regular
Copyright: Created by trashman with FontForge 2.0 (http://fontforge.sf.net)
UComments: "2010-10-5: Created." 
Version: 001.000
ItalicAngle: 0
UnderlinePosition: -100
UnderlineWidth: 50
Ascent: 680
Descent: 320
LayerCount: 3
Layer: 0 0 "Back"  1
Layer: 1 0 "Fore"  0
Layer: 2 0 "backup"  0
NeedsXUIDChange: 1
XUID: [1021 658 797806517 5336769]
OS2Version: 0
OS2_WeightWidthSlopeOnly: 0
OS2_UseTypoMetrics: 1
CreationTime: 1286303174
ModificationTime: 1286418506
OS2TypoAscent: 0
OS2TypoAOffset: 1
OS2TypoDescent: 0
OS2TypoDOffset: 1
OS2TypoLinegap: 0
OS2WinAscent: 0
OS2WinAOffset: 1
OS2WinDescent: 0
OS2WinDOffset: 1
HheadAscent: 0
HheadAOffset: 1
HheadDescent: 0
HheadDOffset: 1
OS2Vendor: 'PfEd'
MarkAttachClasses: 1
DEI: 91125
Encoding: UnicodeBmp
UnicodeInterp: none
NameList: Adobe Glyph List
DisplaySize: -48
AntiAlias: 1
FitToEm: 1
WinInfo: 88 11 5
BeginPrivate: 9
BlueValues 9 [664 678]
OtherBlues 11 [-276 -248]
BlueScale 9 0.0353571
BlueShift 1 7
BlueFuzz 1 0
StdHW 4 [34]
StemSnapH 29 [19 26 30 34 42 46 55 79 108]
StdVW 4 [81]
StemSnapV 29 [44 58 65 75 81 85 92 96 108]
EndPrivate
BeginChars: 65536 63

StartChar: a
Encoding: 97 97 0
Width: 413
VWidth: 0
Flags: HW
HStem: -18 55<107.5 196.89 356.282 388.396> -17 42<298.866 386.582> 206 19<210.449 250> 366 21<139.541 220.436>
VStem: 40 85<53.5451 133.755 285.788 353.768> 250 82<53.8789 206 225 343.153>
LayerCount: 3
Fore
SplineSet
43 318 m 0xbc
 43 366 123 387 192 387 c 0
 266 387 332 350 332 290 c 2
 332 61 l 2
 332 45 332 25 356 25 c 0
 362 25 369 28 373 32 c 0
 378 37 380 42 385 42 c 0
 394 42 398 35 398 26 c 0
 398 0 364 -17 335 -17 c 0x7c
 265 -17 252 49 252 49 c 1
 252 49 233 29 208 11 c 0
 187 -4 162 -18 135 -18 c 0
 80 -18 40 21 40 70 c 0
 40 128 91 178 151 202 c 0
 186 216 218 221 250 225 c 1
 250 300 l 2
 250 347 219 366 178 366 c 0
 164 366 149 365 139 357 c 0
 125 346 120 331 120 309 c 0
 120 292 96 279 81 279 c 0
 58 279 43 295 43 318 c 0xbc
250 206 m 1
 250 206 125 191 125 110 c 0
 125 74 144 37 189 37 c 0xbc
 204 37 250 58 250 88 c 2
 250 206 l 1
EndSplineSet
EndChar

StartChar: b
Encoding: 98 98 1
Width: 492
VWidth: 0
Flags: W
HStem: -16 31<195.991 298.548> -4 29<14.0116 66.8303> 366 26<211.666 302.079> 621 30<17.0403 51> 650 20G<137 147>
VStem: 72 78<26.7188 553.09> 366 92<99.723 283.673>
LayerCount: 3
Fore
SplineSet
146 314 m 1x2e
 165 352 202 392 276 392 c 0
 368 392 458 305 458 190 c 0
 458 88 378 -16 261 -16 c 0
 169 -16 145 57 145 57 c 1
 145 15 l 2xae
 145 -4 144 -9 141 -9 c 0
 138 -9 99 -4 74 -4 c 2
 42 -4 l 2
 30 -4 14 -4 14 10 c 0
 14 21 18 23 33 25 c 2
 53 27 l 2
 70 29 72 56 72 79 c 2
 72 495 l 2
 72 519 72 547 71 587 c 0
 71 600 69 614 51 618 c 2
 36 621 l 2
 31 622 17 624 17 635 c 0
 17 646 23 650 36 651 c 0x76
 67 654 134 670 140 670 c 0
 154 670 154 663 154 654 c 0
 154 557 146 314 146 314 c 1x2e
366 188 m 0
 366 278 337 366 257 366 c 0
 227 366 202 353 183 333 c 0
 154 303 150 255 150 198 c 2
 150 187 l 2
 150 129 151 74 180 41 c 0
 192 27 219 15 245 15 c 0
 343 15 366 124 366 188 c 0
EndSplineSet
Layer: 2
SplineSet
146 314 m 5
 165 352 202 392 276 392 c 4
 368 392 458 305 458 190 c 4
 458 88 378 -16 261 -16 c 4
 174 -16 146 53 146 53 c 5
 146 15 l 6xbc
 146 -4 145 -10 142 -10 c 4
 139 -10 107 -4 82 -4 c 6
 42 -4 l 6
 30 -4 14 -4 14 10 c 4
 14 21 18 23 33 25 c 6
 53 27 l 6
 70 29 72 56 72 79 c 6
 72 495 l 6
 72 519 72 547 71 587 c 4
 71 600 69 614 51 618 c 6
 36 621 l 6
 31 622 17 624 17 635 c 4
 17 646 23 650 36 651 c 4
 67 654 134 670 140 670 c 4
 154 670 154 663 154 654 c 4
 154 557 146 314 146 314 c 5
366 188 m 4
 366 278 337 366 257 366 c 4
 227 366 202 353 183 333 c 4
 154 303 150 255 150 198 c 6
 150 187 l 6
 150 129 151 74 180 41 c 4
 192 27 219 15 245 15 c 4
 343 15 366 124 366 188 c 4
EndSplineSet
EndChar

StartChar: c
Encoding: 99 99 2
Width: 443
VWidth: 0
Flags: W
HStem: -21 46<186.752 320.911> 368 23<207.298 302.145>
VStem: 32 96<95.3365 262.635> 321 72<265.888 352.538>
LayerCount: 3
Fore
SplineSet
249 391 m 0
 308 391 393 368 393 304 c 0
 393 277 377 262 352 262 c 0
 338 262 321 275 321 291 c 0
 321 312 323 311 323 326 c 0
 323 335 312 368 256 368 c 0
 162 368 128 272 128 186 c 0
 128 115 168 25 248 25 c 0
 298 25 329 39 350 68 c 0
 357 77 361 96 376 96 c 0
 385 96 389 89 389 81 c 0
 389 66 381 51 370 38 c 0
 341 2 283 -21 227 -21 c 0
 114 -21 32 69 32 178 c 0
 32 289 141 391 249 391 c 0
EndSplineSet
EndChar

StartChar: d
Encoding: 100 100 3
Width: 500
VWidth: 0
Flags: W
HStem: -14 37<177.465 279.778> 4 28<429.592 479.993> 365 26<188.462 284.427> 630 32<275.082 337.617>
VStem: 26 86<90.8497 283.025> 342 75<58.9574 329.226 336 630.877> 342 75<36.3959 57 58.9574 186.715 189 329.226 336 595.493>
LayerCount: 3
Fore
SplineSet
480 18 m 0x7c
 480 9 479 4 470 4 c 0x7c
 416 4 372 -9 359 -9 c 0
 351 -9 346 -6 346 7 c 2
 346 57 l 1
 346 57 284 -14 217 -14 c 0xbc
 73 -14 26 85 26 190 c 0
 26 292 99 391 222 391 c 0
 301 391 342 336 342 336 c 1
 342 487 l 2
 342 523 340 565 339 597 c 0
 339 612 339 631 318 631 c 2
 294 630 l 2
 282 630 275 635 275 644 c 0
 275 651 277 662 288 662 c 0
 340 664 401 678 413 678 c 0
 426 678 424 670 424 660 c 0
 424 654 418 568 418 520 c 0
 418 458 417 560 417 226 c 2
 417 189 l 2
 417 140 419 107 422 72 c 0
 424 50 432 33 454 32 c 0
 471 31 480 33 480 18 c 0x7c
112 185 m 0
 112 107 153 23 236 23 c 0xbc
 280 23 318 44 331 78 c 0
 340 103 342 135 342 171 c 2
 342 262 l 2
 342 323 302 365 239 365 c 0
 151 365 112 273 112 185 c 0
EndSplineSet
EndChar

StartChar: e
Encoding: 101 101 4
Width: 431
VWidth: 0
Flags: HW
LayerCount: 3
Fore
SplineSet
33 171 m 0
 33 276 108 391 220 391 c 0
 247 391 272 389 294 378 c 0
 339 355 378 306 378 250 c 0
 378 234 360 229 343 229 c 0
 329 229 124 236 124 236 c 1
 124 218 l 2
 124 91 184 29 260 29 c 0
 304 29 338 59 350 92 c 0
 354 101 360 111 370 111 c 0
 378 111 385 104 385 92 c 0
 385 58 335 -23 221 -23 c 0
 105 -23 33 60 33 171 c 0
224 362 m 0
 148 362 130 260 130 260 c 1
 130 260 143 260 250 263 c 0
 276 264 298 265 298 303 c 0
 298 333 262 362 224 362 c 0
EndSplineSet
EndChar

StartChar: f
Encoding: 102 102 5
Width: 278
VWidth: 0
Flags: HW
HStem: -2 34<24.0141 73.1042 159.365 221.985> 340 34<28.0075 76 157 228.85> 643 21<207.218 263.041>
VStem: 76 81<32 340.641 373.453 573.726> 264 86<560.528 642.809>
LayerCount: 3
Fore
SplineSet
264 627 m 0
 264 641 256 643 241 643 c 0
 166 643 157 530 157 488 c 2
 157 384 l 2
 157 373 157 373 168 373 c 2
 215 374 l 2
 226 374 229 369 229 358 c 2
 229 354 l 2
 229 345 225 340 213 340 c 2
 168 341 l 2
 157 341 157 340 157 328 c 2
 157 166 l 2
 157 152 157 118 158 85 c 0
 159 56 156 32 173 32 c 2
 205 32 l 2
 217 32 222 30 222 16 c 0
 222 1 217 -2 208 -2 c 0
 182 -2 152 0 124 0 c 0
 95 0 55 -2 39 -2 c 0
 26 -2 24 6 24 16 c 0
 24 28 27 32 41 32 c 2
 61 32 l 2
 76 32 74 62 75 85 c 0
 76 108 76 138 76 166 c 2
 76 328 l 2
 76 341 75 341 62 341 c 2
 40 340 l 2
 29 340 28 344 28 352 c 2
 28 361 l 2
 28 368 29 374 40 374 c 2
 66 373 l 2
 76 373 76 373 76 384 c 2
 76 454 l 2
 76 517 85 578 133 622 c 0
 164 650 193 664 252 664 c 0
 297 664 350 653 350 597 c 0
 350 567 322 554 307 554 c 0
 282 554 262 568 262 598 c 0
 262 610 264 620 264 627 c 0
EndSplineSet
EndChar

StartChar: g
Encoding: 103 103 6
Width: 454
VWidth: 0
Flags: W
HStem: -276 34<141.226 304.094> -67 22<123.866 141.993> -58 86<167.036 340.45> -50 78<167 326.643> 108 19<152.433 216.195> 369 19<159.076 217.644 311.801 378>
VStem: 29 65<-204.706 -84.7684> 32 82<172.425 320.274> 81 44<16.5 87.2421> 256 77<168.606 312.895> 366 56<-190.844 -82.0657>
LayerCount: 3
Fore
SplineSet
186 388 m 0xcd60
 237 388 280 354 280 354 c 1
 280 354 318 394 360 394 c 0
 396 394 422 379 422 344 c 0
 422 328 415 310 395 310 c 0
 353 310 362 367 332 367 c 0
 311 367 290 343 290 343 c 1
 290 343 333 299 333 240 c 0
 333 171 281 108 182 108 c 0
 166 108 125 104 125 68 c 0xcce0
 125 33 162 28 194 28 c 2
 279 28 l 2
 372 28 422 -14 422 -106 c 0
 422 -243 295 -276 220 -276 c 0
 123 -276 29 -230 29 -139 c 0xae60
 29 -66 86 -49 120 -45 c 0
 132 -44 142 -43 142 -42 c 0
 142 -41 130 -38 120 -33 c 0
 98 -22 81 -1 81 34 c 0xcce0
 81 88 136 113 136 113 c 1
 136 113 32 134 32 250 c 0
 32 330 106 388 186 388 c 0xcd60
94 -139 m 0xce60
 94 -200 130 -242 224 -242 c 0
 310 -242 366 -197 366 -125 c 0
 366 -74 306 -58 248 -58 c 0xae60
 216 -58 167 -50 167 -50 c 1x9e60
 167 -50 172 -67 160 -67 c 0
 113 -67 94 -108 94 -139 c 0xce60
188 369 m 0
 136 369 114 300 114 242 c 0x8d60
 114 191 129 127 182 127 c 0
 240 127 256 183 256 234 c 0
 256 290 245 369 188 369 c 0
EndSplineSet
EndChar

StartChar: h
Encoding: 104 104 7
Width: 528
VWidth: 0
Flags: W
HStem: -2 34<29.0205 85.5807 172.828 226.968 295.043 351.104 436.688 496.965> 360 28<236.939 325.559> 630 25<36.0268 94.886>
VStem: 88 83<32 318.234 322 334.515> 98 85<410.426 629.99> 354 81<32 339.435>
LayerCount: 3
Fore
SplineSet
278 360 m 0xf4
 210 360 171 298 171 270 c 2
 171 69 l 2
 171 48 175 32 189 32 c 2
 204 32 l 2
 216 32 227 30 227 16 c 0
 227 1 217 -2 208 -2 c 0
 182 -2 160 0 132 0 c 0
 103 0 61 -2 45 -2 c 0
 32 -2 29 6 29 16 c 0
 29 28 35 32 49 32 c 2
 73 32 l 2
 88 32 87 62 88 85 c 0xf4
 92 240 98 500 98 587 c 2
 98 602 l 2
 98 616 97 630 84 630 c 0
 78 630 68 628 52 626 c 0
 40 625 36 632 36 641 c 0
 36 648 37 654 48 655 c 0
 96 660 157 673 168 673 c 0
 181 673 183 666 183 656 c 2xec
 183 656 175 580 171 322 c 1
 171 322 211 388 308 388 c 0
 384 388 436 351 436 289 c 2
 435 74 l 2
 435 46 438 32 452 32 c 2
 473 32 l 2
 485 32 497 30 497 16 c 0
 497 1 490 -2 481 -2 c 0
 455 -2 423 0 395 0 c 0
 366 0 334 -2 318 -2 c 0
 301 -2 295 3 295 16 c 0
 295 31 310 32 322 32 c 2
 339 32 l 2
 354 32 352 62 353 85 c 0
 354 108 354 138 354 166 c 2
 354 246 l 2
 354 312 346 360 278 360 c 0xf4
EndSplineSet
EndChar

StartChar: i
Encoding: 105 105 8
Width: 272
VWidth: 0
Flags: HW
LayerCount: 3
Fore
SplineSet
90 620 m 0
 90 650 114 674 144 674 c 0
 174 674 198 650 198 620 c 0
 198 590 174 566 144 566 c 0
 114 566 90 590 90 620 c 0
103 328 m 0
 103 340 102 352 91 352 c 0
 85 352 77 351 61 351 c 0
 49 351 45 357 45 366 c 0
 45 373 46 381 57 381 c 0
 115 381 165 388 176 388 c 0
 188 388 190 378 190 368 c 0
 190 361 186 187 186 85 c 0
 186 61 187 32 205 32 c 2
 226 32 l 2
 238 32 249 30 249 16 c 0
 249 1 239 -2 230 -2 c 0
 204 -2 175 0 147 0 c 0
 118 0 73 -2 57 -2 c 0
 44 -2 41 6 41 16 c 0
 41 28 47 32 61 32 c 2
 87 32 l 2
 102 32 101 62 102 85 c 0
 103 106 104 132 104 159 c 2
 104 250 l 2
 104 278 104 304 103 328 c 0
EndSplineSet
EndChar

StartChar: j
Encoding: 106 106 9
Width: 272
VWidth: 0
Flags: HW
HStem: -248 27<4.14029 67.3437> 343 26<48.014 104.751> 566 108<100.676 187.324>
VStem: -89 87<-213.664 -147.02> 90 108<576.676 663.324> 109 81<-163.681 342.99>
LayerCount: 3
Fore
SplineSet
188 -89 m 0xf4
 185 -190 108 -248 9 -248 c 0
 -56 -248 -89 -226 -89 -187 c 0
 -89 -165 -68 -137 -40 -137 c 0
 -16 -137 -4 -160 -2 -179 c 0
 -1 -189 -2 -207 5 -214 c 0
 11 -220 16 -221 29 -221 c 0
 109 -221 109 -104 109 -29 c 0
 109 90 107 203 107 313 c 0
 107 329 104 343 91 343 c 0
 85 343 76 341 62 339 c 0
 50 337 48 346 48 355 c 0
 48 362 49 368 60 369 c 0
 108 374 170 390 181 390 c 0
 194 390 192 381 192 371 c 2
 192 371 189 322 189 180 c 0
 189 139 190 91 190 34 c 0
 190 -12 189 -52 188 -89 c 0xf4
90 620 m 0xf8
 90 650 114 674 144 674 c 0
 174 674 198 650 198 620 c 0
 198 590 174 566 144 566 c 0
 114 566 90 590 90 620 c 0xf8
EndSplineSet
EndChar

StartChar: k
Encoding: 107 107 10
Width: 476
VWidth: 0
Flags: HW
LayerCount: 3
Fore
SplineSet
406 359 m 0
 406 350 398 347 389 347 c 0
 363 346 349 336 326 319 c 0
 293 294 260 259 240 238 c 0
 231 229 227 224 227 220 c 0
 227 216 232 212 240 203 c 0
 276 167 362 76 423 30 c 0
 426 28 432 28 435 28 c 0
 453 28 469 26 469 13 c 0
 469 -2 458 -2 449 -2 c 0
 423 -2 381 0 353 0 c 0
 324 0 280 -2 264 -2 c 0
 251 -2 248 6 248 16 c 0
 248 29 260 29 273 30 c 0
 279 30 280 33 280 37 c 0
 280 46 268 61 264 66 c 0
 243 94 217 121 184 163 c 0
 182 166 179 171 176 171 c 0
 169 171 166 163 166 146 c 2
 166 69 l 2
 166 48 171 30 185 30 c 2
 198 30 l 2
 210 30 220 30 220 16 c 0
 220 1 213 -2 204 -2 c 0
 178 -2 156 0 128 0 c 0
 99 0 57 -2 41 -2 c 0
 28 -2 27 6 27 16 c 0
 27 28 33 30 47 30 c 2
 69 30 l 2
 84 30 83 62 84 85 c 0
 86 147 86 225 86 302 c 0
 86 417 86 528 85 582 c 0
 85 600 85 629 68 629 c 0
 62 629 55 628 39 626 c 0
 27 625 23 631 23 640 c 0
 23 647 24 653 35 654 c 0
 83 659 145 672 156 672 c 0
 169 672 171 665 171 655 c 2
 170 594 l 2
 169 516 164 366 164 195 c 1
 193 222 280 304 280 322 c 0
 280 334 275 346 247 353 c 0
 238 355 239 374 248 374 c 2
 394 374 l 2
 402 374 406 367 406 359 c 0
EndSplineSet
EndChar

StartChar: l
Encoding: 108 108 11
Width: 278
VWidth: 0
Flags: HW
HStem: -2 33<25.0176 97.751 187.431 261.77> 630 28<44.0396 104.186> 653 20G<174.5 186.5>
VStem: 100 85<31.1719 335.345> 110 84<378.713 662.652>
LayerCount: 3
Fore
SplineSet
185 76 m 0xb0
 185 56 187 31 200 31 c 2
 240 32 l 2
 252 32 262 32 262 18 c 0
 262 3 253 -2 244 -2 c 0
 218 -2 170 0 142 0 c 0
 113 0 55 -2 39 -2 c 0
 26 -2 25 6 25 16 c 0
 25 28 31 31 45 31 c 2
 85 30 l 2
 100 30 100 62 100 85 c 0xb0
 103 229 107 464 110 588 c 0
 110 604 105 630 92 630 c 0
 86 630 78 628 62 627 c 0
 50 626 44 634 44 643 c 0
 44 650 47 657 58 658 c 0xc8
 120 663 169 673 180 673 c 0
 193 673 194 672 194 659 c 0xa8
 194 611 186 588 186 277 c 0
 186 206 186 135 185 76 c 0xb0
EndSplineSet
EndChar

StartChar: m
Encoding: 109 109 12
Width: 740
VWidth: 0
Flags: HW
LayerCount: 3
Fore
SplineSet
275 361 m 0
 208 361 171 287 171 203 c 0
 171 158 172 114 173 69 c 0
 173 39 178 32 206 32 c 0
 218 32 227 30 227 16 c 0
 227 1 217 -2 208 -2 c 0
 182 -2 160 0 132 0 c 0
 103 0 61 -2 45 -2 c 0
 32 -2 28 8 28 18 c 0
 28 30 34 34 48 34 c 2
 74 34 l 2
 88 34 88 62 88 85 c 2
 88 173 l 2
 88 238 88 292 87 311 c 0
 86 326 86 343 52 343 c 2
 42 343 l 2
 35 343 30 349 30 358 c 0
 30 365 35 373 46 374 c 0
 96 379 145 392 156 392 c 0
 169 392 169 385 169 375 c 2
 169 303 l 1
 169 303 202 392 299 392 c 0
 343 392 394 368 411 321 c 1
 425 350 467 392 541 392 c 0
 621 392 660 349 660 269 c 2
 659 64 l 2
 659 43 664 33 676 33 c 2
 695 33 l 2
 707 33 719 30 719 16 c 0
 719 1 712 -2 703 -2 c 0
 677 -2 643 0 615 0 c 0
 586 0 554 -2 538 -2 c 0
 521 -2 515 3 515 16 c 0
 515 31 530 32 542 32 c 2
 559 32 l 2
 574 32 573 62 574 85 c 0
 575 108 575 138 575 166 c 2
 575 246 l 2
 575 312 571 360 503 360 c 0
 473 360 434 333 424 301 c 0
 419 283 416 252 415 191 c 2
 414 74 l 2
 414 31 432 34 451 32 c 0
 463 31 475 30 475 16 c 0
 475 1 466 -2 457 -2 c 0
 431 -2 401 0 373 0 c 0
 344 0 314 -2 298 -2 c 0
 281 -2 277 3 277 16 c 0
 277 31 288 34 300 34 c 2
 315 34 l 2
 330 34 328 62 329 85 c 0
 331 119 331 157 331 195 c 2
 331 248 l 2
 331 304 326 361 275 361 c 0
EndSplineSet
EndChar

StartChar: n
Encoding: 110 110 13
Width: 506
VWidth: 0
Flags: HW
HStem: -2 36<28.0756 84.9324 168.473 223.993 285.008 336.386 425.282 483.794> 346 29<35.0147 82.1035> 363 28<241.158 318.158>
VStem: 87 79<34.0786 344.631> 340 84<34.0728 346.76>
LayerCount: 3
Fore
SplineSet
424 74 m 2xb8
 424 33 431 33 455 33 c 2
 468 33 l 2
 478 33 484 30 484 20 c 0
 484 2 476 -2 466 -2 c 0
 440 -2 410 0 382 0 c 0
 353 0 323 -2 307 -2 c 0
 290 -2 285 3 285 16 c 0
 285 31 296 34 308 34 c 2
 324 34 l 2
 339 34 337 62 338 85 c 0
 340 119 340 157 340 195 c 2
 340 248 l 2
 340 304 336 363 285 363 c 0xb8
 231 363 166 302 166 218 c 0
 166 173 166 114 167 69 c 0
 167 39 175 31 203 31 c 0
 215 31 224 30 224 16 c 0
 224 1 214 -2 205 -2 c 0
 179 -2 160 0 132 0 c 0
 103 0 61 -2 45 -2 c 0
 32 -2 28 8 28 18 c 0
 28 30 34 34 48 34 c 2
 72 34 l 2
 86 34 87 62 87 85 c 2
 87 173 l 2
 87 238 87 292 86 311 c 0
 85 326 86 346 52 346 c 2
 47 346 l 2
 40 346 35 352 35 361 c 0
 35 368 40 375 51 375 c 0xd8
 100 376 144 386 151 386 c 0
 164 386 161 379 161 369 c 2
 161 293 l 1
 161 293 200 391 304 391 c 0
 332 391 424 390 424 265 c 2
 424 74 l 2xb8
EndSplineSet
EndChar

StartChar: o
Encoding: 111 111 14
Width: 484
VWidth: 0
Flags: W
HStem: -16 27<191.26 289.963> 373 23<193.656 286.087>
VStem: 34 92<99.3062 275.639> 352 87<101.642 289.612>
LayerCount: 3
Fore
SplineSet
439 202 m 0
 439 89 363 -16 233 -16 c 0
 119 -16 34 80 34 194 c 0
 34 315 159 396 248 396 c 0
 351 396 439 310 439 202 c 0
243 373 m 0
 159 373 126 305 126 188 c 0
 126 89 158 11 241 11 c 0
 337 11 352 114 352 198 c 0
 352 278 325 373 243 373 c 0
EndSplineSet
EndChar

StartChar: p
Encoding: 112 112 15
Width: 524
VWidth: 0
Flags: HW
HStem: -278 34<16.0141 88.1042 179.271 246.985> -13 25<230.012 328.606> 359 27<34.0037 89.2839 223.072 340.606>
VStem: 93 78<-243.806 48 52.94 320.731 323 358.926> 401 93<95.8112 281.911>
LayerCount: 3
Fore
SplineSet
69 359 m 2
 51 359 l 2
 35 359 34 364 34 373 c 0
 34 381 39 386 54 386 c 2
 62 386 l 2
 94 386 152 392 156 392 c 0
 168 392 170 386 170 370 c 2
 170 323 l 1
 201 364 234 391 300 391 c 0
 401 391 494 311 494 188 c 0
 494 85 417 -13 294 -13 c 0
 202 -13 171 48 171 48 c 1
 174 -48 173 -105 176 -191 c 0
 177 -220 178 -244 195 -244 c 2
 230 -244 l 2
 242 -244 247 -246 247 -260 c 0
 247 -275 242 -278 233 -278 c 0
 207 -278 169 -276 141 -276 c 0
 112 -276 47 -278 31 -278 c 0
 18 -278 16 -270 16 -260 c 0
 16 -248 19 -244 33 -244 c 2
 76 -244 l 2
 91 -244 89 -214 90 -191 c 0
 91 -168 93 32 93 60 c 2
 92 327 l 2
 92 353 82 359 69 359 c 2
401 188 m 0
 401 285 360 365 283 365 c 0
 240 365 218 347 198 327 c 0
 172 301 171 265 171 236 c 2
 171 127 l 2
 171 31 241 12 277 12 c 0
 371 12 401 97 401 188 c 0
EndSplineSet
EndChar

StartChar: q
Encoding: 113 113 16
Width: 500
VWidth: 0
Flags: HW
HStem: -273 32<271.002 342.948 431.507 476.996> -13 30<192.889 293.381> 371 23<197.556 298.179>
VStem: 36 91<85.2984 276.519> 346 83<-240.771 48 50.0378 339.375>
LayerCount: 3
Fore
SplineSet
429 -188 m 0
 429 -229 430 -242 462 -243 c 0
 474 -243 477 -244 477 -257 c 0
 477 -272 472 -273 463 -273 c 0
 452 -273 412 -271 388 -271 c 0
 359 -271 302 -273 286 -273 c 0
 273 -273 271 -267 271 -257 c 0
 271 -245 274 -241 288 -241 c 2
 331 -241 l 2
 346 -241 344 -211 345 -188 c 0
 346 -170 346 -119 346 -69 c 2
 346 48 l 1
 323 9 276 -13 222 -13 c 0
 100 -13 36 79 36 179 c 0
 36 289 112 394 238 394 c 0
 319 394 351 344 351 344 c 9
 378 362 404 391 421 391 c 0
 434 391 434 371 434 357 c 0
 434 347 426 247 426 226 c 0
 426 199 427 172 427 145 c 0
 427 31 428 -81 429 -188 c 0
127 186 m 0
 127 115 148 17 251 17 c 0
 274 17 291 23 305 32 c 0
 342 55 349 113 349 169 c 2
 349 262 l 2
 349 323 318 371 250 371 c 0
 162 371 127 300 127 186 c 0
EndSplineSet
EndChar

StartChar: r
Encoding: 114 114 17
Width: 358
VWidth: 0
Flags: HW
HStem: -2 38<33.0176 92.1421 181.914 253.971> 350 32<34.0118 90.8489> 352 45<228.172 292.584>
VStem: 96 84<36.1621 349.968>
LayerCount: 3
Fore
SplineSet
94 327 m 0xb0
 93 339 85 350 73 350 c 2
 50 350 l 2
 38 350 34 356 34 365 c 0
 34 372 35 382 46 382 c 0xd0
 101 384 153 394 164 394 c 0
 176 394 176 384 176 374 c 2
 176 309 l 1
 194 346 233 397 285 397 c 0
 315 397 345 379 345 347 c 0
 345 324 328 303 305 303 c 0
 272 303 270 352 247 352 c 0
 228 352 202 323 189 287 c 0
 182 267 180 247 180 225 c 2
 180 84 l 2
 180 60 181 36 199 36 c 2
 232 36 l 2
 244 36 254 30 254 16 c 0
 254 1 244 -2 235 -2 c 0
 209 -2 168 0 140 0 c 0
 111 0 67 -2 51 -2 c 0
 38 -2 33 6 33 16 c 0
 33 28 39 35 53 35 c 2
 80 35 l 2
 95 35 92 61 93 84 c 0
 94 105 96 131 96 158 c 2
 96 249 l 2
 96 277 96 303 94 327 c 0xb0
EndSplineSet
EndChar

StartChar: s
Encoding: 115 115 18
Width: 340
VWidth: 0
Flags: HW
LayerCount: 3
Fore
SplineSet
166 393 m 0
 201 393 228 376 244 376 c 0
 250 376 255 378 260 380 c 2
 270 385 l 2
 273 387 276 388 278 388 c 0
 285 388 286 378 286 369 c 0
 286 350 279 313 279 277 c 0
 279 264 265 263 262 275 c 0
 248 332 223 369 170 369 c 0
 130 369 110 338 110 305 c 0
 110 256 151 253 195 240 c 0
 233 229 262 225 287 192 c 0
 305 168 312 123 312 108 c 0
 312 28 250 -15 172 -15 c 0
 133 -15 99 12 92 12 c 0
 87 12 84 12 74 7 c 2
 65 2 l 2
 60 -1 56 -2 52 -2 c 0
 44 -2 38 4 38 15 c 0
 38 36 47 80 48 117 c 0
 48 128 53 133 59 133 c 0
 64 133 70 129 72 120 c 0
 90 24 142 15 180 15 c 0
 216 15 243 42 243 86 c 0
 243 123 207 150 172 162 c 0
 115 182 91 180 59 228 c 0
 49 243 44 259 44 284 c 0
 44 348 99 393 166 393 c 0
EndSplineSet
EndChar

StartChar: t
Encoding: 116 116 19
Width: 298
VWidth: 0
Flags: HW
HStem: -13 44<169.263 242.753> 346 39<161.057 255>
VStem: 68 89<40.7706 315.125> 78 80<84.2275 345.965>
LayerCount: 3
Fore
SplineSet
68 62 m 0xe0
 68 137 78 258 78 329 c 0
 78 339 74 346 64 346 c 2
 58 346 l 2
 48 346 43 350 43 356 c 0
 43 361 47 367 52 372 c 0
 109 426 113 452 127 483 c 0
 132 494 136 503 150 503 c 0
 158 503 166 498 166 486 c 0
 166 460 162 423 161 401 c 0
 161 384 159 384 176 384 c 2
 231 385 l 2
 248 385 255 380 255 372 c 2
 255 362 l 2
 255 345 246 346 235 346 c 2
 167 347 l 2
 159 347 159 345 158 330 c 0xd0
 157 302 157 234 157 178 c 2
 157 132 l 2
 157 76 162 31 206 31 c 0
 252 31 241 74 260 74 c 0
 267 74 275 69 275 59 c 0
 275 52 269 31 257 19 c 0
 239 1 208 -13 178 -13 c 0
 90 -13 68 43 68 62 c 0xe0
EndSplineSet
EndChar

StartChar: u
Encoding: 117 117 20
Width: 518
VWidth: 0
Flags: HW
HStem: -16 38<191.878 281.001> 1 31<438.58 494.992> 349 29<29.0032 83.1922 291.149 350.459>
VStem: 86 80<45.635 348.993> 357 75<35.3594 81 89.6277 351.965>
LayerCount: 3
Fore
SplineSet
86 250 m 0xb8
 86 278 85 304 84 328 c 0
 84 340 77 349 70 349 c 0
 65 349 49 348 45 348 c 0
 33 348 29 354 29 363 c 0
 29 370 30 378 41 378 c 0
 62 377 82 377 103 377 c 0
 120 377 139 377 157 378 c 0
 169 378 173 374 173 364 c 0
 173 357 166 262 166 160 c 0
 166 65 182 22 243 22 c 0xb8
 306 22 350 89 351 156 c 0
 352 188 352 222 352 255 c 0
 352 280 352 305 351 328 c 0
 351 340 346 352 334 352 c 0
 328 352 323 351 307 351 c 0
 295 351 291 357 291 366 c 0
 291 373 292 378 303 378 c 0
 361 378 409 383 420 383 c 0
 432 383 433 373 433 363 c 0
 433 356 432 187 432 85 c 0
 432 44 442 34 472 32 c 0
 484 31 495 30 495 16 c 0
 495 1 485 1 476 1 c 0x78
 400 0 380 -4 372 -4 c 0
 358 -4 357 0 357 10 c 2
 357 81 l 1
 346 56 296 -16 212 -16 c 0
 178 -16 149 -7 128 9 c 0
 99 30 83 56 83 106 c 0
 83 152 86 203 86 250 c 0xb8
EndSplineSet
EndChar

StartChar: v
Encoding: 118 118 21
Width: 452
VWidth: 0
Flags: HW
HStem: 358 26<15.0354 39 286.074 326.144 393.449 431.996>
VStem: 334 98<318.5 374>
DStem2: 259 143 289 147 0.40586 0.913935<-24.3877 194.561>
LayerCount: 3
Fore
SplineSet
94 382 m 0
 117 382 141 383 178 384 c 0
 191 384 192 375 192 369 c 0
 192 354 159 362 159 348 c 0
 159 332 212 203 234 148 c 0
 241 131 244 123 247 123 c 0
 250 123 252 129 259 143 c 0
 275 175 303 237 326 293 c 0
 331 304 334 314 334 323 c 0
 334 341 323 354 300 359 c 0
 292 361 286 366 286 372 c 0
 286 377 290 383 299 383 c 0
 321 383 339 382 359 382 c 0
 379 382 394 383 411 383 c 0
 426 383 432 377 432 371 c 0
 432 367 431 362 424 360 c 0
 390 349 377 333 363 304 c 2
 289 147 l 2
 277 122 245 46 227 0 c 0
 224 -8 216 -14 208 -14 c 0
 201 -14 194 -9 191 0 c 2
 147 125 l 2
 122 194 97 257 66 328 c 0
 59 342 50 351 39 354 c 2
 25 358 l 2
 18 360 15 365 15 372 c 0
 15 378 17 384 23 384 c 0
 56 384 77 382 94 382 c 0
EndSplineSet
EndChar

StartChar: w
Encoding: 119 119 22
Width: 694
VWidth: 0
Flags: HW
HStem: 354 28<28.3484 66.2529 279.187 301 531.074 570.889 625.082 666.996>
VStem: 327 82<271.894 354.5> 574 93<318.5 371>
DStem2: 261 141 286 136 0.359227 0.93325<-22.9214 149.83> 500 138 519 114 0.380439 0.924806<-23.0041 198.85>
LayerCount: 3
Fore
SplineSet
100 380 m 0
 123 380 151 381 188 382 c 0
 201 382 202 375 202 369 c 0
 202 350 164 362 164 337 c 0
 164 321 214 201 236 146 c 0
 243 129 246 121 249 121 c 0
 252 121 254 127 261 141 c 0
 269 158 298 228 315 272 c 0
 321 289 327 302 327 314 c 0
 327 318 326 323 324 327 c 2
 315 346 l 2
 313 351 308 354 301 356 c 2
 291 358 l 2
 284 359 279 363 279 370 c 0
 279 379 286 381 303 381 c 0
 319 381 346 380 352 380 c 0
 373 380 395 381 428 382 c 0
 441 382 442 375 442 369 c 0
 442 354 409 362 409 348 c 0
 409 332 453 198 475 143 c 0
 482 126 485 118 488 118 c 0
 491 118 493 124 500 138 c 0
 516 170 543 237 566 293 c 0
 571 304 574 314 574 323 c 0
 574 341 568 351 545 356 c 0
 537 358 531 363 531 369 c 0
 531 374 535 381 544 381 c 0
 566 381 577 380 597 380 c 0
 617 380 629 381 646 381 c 0
 661 381 667 374 667 368 c 0
 667 364 666 359 659 357 c 0
 625 346 613 334 600 303 c 2
 519 114 l 1
 477 4 l 2
 472 -10 464 -16 457 -16 c 0
 449 -16 440 -8 436 6 c 2
 397 125 l 2
 384 164 369 211 353 252 c 0
 348 264 346 270 344 270 c 0
 342 270 339 264 334 252 c 2
 286 136 l 2
 276 111 254 46 237 0 c 0
 233 -10 228 -15 221 -15 c 0
 214 -15 206 -9 202 0 c 0
 154 113 119 210 72 328 c 0
 66 343 60 351 50 354 c 0
 38 358 28 358 28 372 c 0
 28 378 38 382 44 382 c 0
 77 382 83 380 100 380 c 0
EndSplineSet
EndChar

StartChar: x
Encoding: 120 120 23
Width: 484
VWidth: 0
Flags: HW
HStem: -2 33<10.3587 74.6376 263.078 294.999 418.106 462.992> 354 27<10.0088 62.0553 170.003 199.996 283.297 320.837 377.441 434.953>
DStem2: 183 318 72 329 0.642871 -0.765974<-26.486 104.597 137.096 286.908> 107 79 136 66 0.656399 0.754414<-11.554 9.2282 210.995 334.436>
LayerCount: 3
Fore
SplineSet
195 177 m 1
 195 177 137 254 72 329 c 0
 62 341 53 354 33 354 c 2
 20 354 l 2
 13 354 10 361 10 368 c 0
 10 374 12 381 18 381 c 0
 51 381 77 380 94 380 c 0
 117 380 149 380 186 381 c 0
 199 381 200 373 200 367 c 0
 200 358 194 358 189 357 c 0
 174 354 170 349 170 342 c 0
 170 335 176 327 183 318 c 2
 248 236 l 1
 248 236 321 320 321 337 c 0
 321 355 312 357 297 357 c 0
 288 357 283 364 283 370 c 0
 283 375 287 381 296 381 c 0
 318 381 339 380 359 380 c 0
 379 380 397 381 414 381 c 0
 429 381 435 375 435 369 c 0
 435 360 431 354 424 353 c 0
 385 348 384 350 357 320 c 2
 263 218 l 1
 263 218 373 85 418 38 c 0
 420 35 439 31 442 31 c 0
 462 29 463 26 463 13 c 0
 463 -2 452 -2 443 -2 c 0
 417 -2 391 0 363 0 c 0
 334 0 297 -2 281 -2 c 0
 268 -2 263 6 263 16 c 0
 263 29 275 29 288 30 c 0
 294 30 295 33 295 37 c 0
 295 46 283 61 279 66 c 2
 208 160 l 25
 136 66 l 2
 130 58 127 52 127 46 c 0
 127 15 175 38 175 14 c 0
 175 -1 161 -2 152 -2 c 0
 126 -2 111 0 83 0 c 0
 54 0 45 -2 29 -2 c 0
 16 -2 10 1 10 11 c 0
 10 23 20 26 30 28 c 0
 62 34 77 46 107 79 c 2
 195 177 l 1
EndSplineSet
EndChar

StartChar: y
Encoding: 121 121 24
Width: 452
VWidth: 0
Flags: HW
HStem: -277 106<77.9826 143.859> 357 27<15.0088 42 163.005 197.896 301.026 342.131 407.179 446.979>
VStem: 349 98<318.5 373>
DStem2: 169 325 68 328 0.420461 -0.907311<-19.5896 227.221> 220 0 182 -177 0.379511 0.925187<-181.458 0 127.235 347.401>
LayerCount: 3
Fore
SplineSet
220 0 m 1
 165 125 l 2
 136 193 103 257 68 328 c 0
 61 342 53 350 42 353 c 2
 25 357 l 2
 18 359 15 364 15 371 c 0
 15 377 17 384 23 384 c 0
 56 384 77 382 94 382 c 0
 117 382 147 383 184 384 c 0
 197 384 198 374 198 368 c 0
 198 363 194 361 188 359 c 0
 170 354 163 352 163 344 c 0
 163 340 165 334 169 325 c 0
 186 283 227 196 247 151 c 0
 256 131 263 119 265 119 c 0
 268 119 272 128 280 144 c 0
 296 176 318 237 341 293 c 0
 346 304 349 314 349 323 c 0
 349 341 338 353 315 358 c 0
 307 360 301 365 301 371 c 0
 301 376 305 383 314 383 c 0
 336 383 354 382 374 382 c 0
 394 382 409 383 426 383 c 0
 441 383 447 376 447 370 c 0
 447 366 446 361 439 359 c 0
 405 348 391 333 378 304 c 2
 309 147 l 2
 298 122 268 40 250 -6 c 0
 248 -10 221 -77 193 -147 c 0
 189 -157 186 -167 182 -177 c 0
 168 -213 150 -277 104 -277 c 0
 80 -277 58 -260 58 -238 c 0
 58 -192 96 -180 122 -171 c 0
 141 -164 155 -147 164 -128 c 0
 190 -76 220 0 220 0 c 1
EndSplineSet
EndChar

StartChar: z
Encoding: 122 122 25
Width: 374
VWidth: 0
Flags: WO
HStem: -2 31<144.806 257.377> 353 26<113.909 227.996>
VStem: 35 28<248.071 293.14> 315 29<84.6108 140.977>
DStem2: 31 30 146 53 0.529906 0.848057<60.799 371.993>
LayerCount: 3
Fore
SplineSet
337 17 m 0
 337 7 332 -2 310 -2 c 0
 302 -2 262 0 158 0 c 0
 113 0 54 -2 43 -2 c 0
 30 -2 26 5 26 13 c 0
 26 19 28 26 31 30 c 0
 78 100 144 203 186 272 c 0
 203 300 228 337 228 346 c 0
 228 353 223 353 209 353 c 2
 202 353 l 2
 192 353 131 353 106 336 c 0
 78 317 76 281 63 258 c 0
 60 253 55 248 48 248 c 0
 35 248 34 259 35 271 c 0
 37 291 39 301 40 356 c 0
 40 372 43 380 58 380 c 0
 64 380 163 379 208 379 c 0
 262 379 312 381 322 381 c 0
 330 381 336 376 336 368 c 0
 336 360 333 352 330 348 c 0
 293 301 213 170 146 53 c 0
 143 47 133 29 148 29 c 0
 199 29 229 31 262 46 c 0
 298 62 308 96 315 125 c 0
 317 133 318 141 329 141 c 0
 336 141 344 136 344 129 c 0
 344 112 340 97 339 84 c 0
 337 63 338 43 337 17 c 0
EndSplineSet
EndChar

StartChar: zero
Encoding: 48 48 52
Width: 236
VWidth: 0
Flags: HW
LayerCount: 3
Fore
SplineSet
64 230 m 0
 64 261 89 286 120 286 c 0
 151 286 176 261 176 230 c 0
 176 199 151 174 120 174 c 0
 89 174 64 199 64 230 c 0
EndSplineSet
EndChar

StartChar: one
Encoding: 49 49 53
Width: 236
VWidth: 0
Flags: HW
LayerCount: 3
Fore
SplineSet
64 230 m 0
 64 261 89 286 120 286 c 0
 151 286 176 261 176 230 c 0
 176 199 151 174 120 174 c 0
 89 174 64 199 64 230 c 0
EndSplineSet
EndChar

StartChar: two
Encoding: 50 50 54
Width: 236
VWidth: 0
Flags: HW
LayerCount: 3
Fore
SplineSet
64 230 m 0
 64 261 89 286 120 286 c 0
 151 286 176 261 176 230 c 0
 176 199 151 174 120 174 c 0
 89 174 64 199 64 230 c 0
EndSplineSet
EndChar

StartChar: three
Encoding: 51 51 55
Width: 236
VWidth: 0
Flags: HW
LayerCount: 3
Fore
SplineSet
64 230 m 0
 64 261 89 286 120 286 c 0
 151 286 176 261 176 230 c 0
 176 199 151 174 120 174 c 0
 89 174 64 199 64 230 c 0
EndSplineSet
EndChar

StartChar: four
Encoding: 52 52 56
Width: 236
VWidth: 0
Flags: HW
LayerCount: 3
Fore
SplineSet
64 230 m 0
 64 261 89 286 120 286 c 0
 151 286 176 261 176 230 c 0
 176 199 151 174 120 174 c 0
 89 174 64 199 64 230 c 0
EndSplineSet
EndChar

StartChar: five
Encoding: 53 53 57
Width: 236
VWidth: 0
Flags: HW
LayerCount: 3
Fore
SplineSet
64 230 m 0
 64 261 89 286 120 286 c 0
 151 286 176 261 176 230 c 0
 176 199 151 174 120 174 c 0
 89 174 64 199 64 230 c 0
EndSplineSet
EndChar

StartChar: six
Encoding: 54 54 58
Width: 236
VWidth: 0
Flags: HW
LayerCount: 3
Fore
SplineSet
64 230 m 0
 64 261 89 286 120 286 c 0
 151 286 176 261 176 230 c 0
 176 199 151 174 120 174 c 0
 89 174 64 199 64 230 c 0
EndSplineSet
EndChar

StartChar: seven
Encoding: 55 55 59
Width: 236
VWidth: 0
Flags: HW
LayerCount: 3
Fore
SplineSet
64 230 m 0
 64 261 89 286 120 286 c 0
 151 286 176 261 176 230 c 0
 176 199 151 174 120 174 c 0
 89 174 64 199 64 230 c 0
EndSplineSet
EndChar

StartChar: eight
Encoding: 56 56 60
Width: 236
VWidth: 0
Flags: HW
LayerCount: 3
Fore
SplineSet
64 230 m 0
 64 261 89 286 120 286 c 0
 151 286 176 261 176 230 c 0
 176 199 151 174 120 174 c 0
 89 174 64 199 64 230 c 0
EndSplineSet
EndChar

StartChar: nine
Encoding: 57 57 61
Width: 236
VWidth: 0
Flags: HW
LayerCount: 3
Fore
SplineSet
64 230 m 0
 64 261 89 286 120 286 c 0
 151 286 176 261 176 230 c 0
 176 199 151 174 120 174 c 0
 89 174 64 199 64 230 c 0
EndSplineSet
EndChar

